<?xml version="1.0" encoding="UTF-8" standalone="no"?>
<svg width="17px" height="14px" viewBox="0 0 17 14" version="1.1" xmlns="http://www.w3.org/2000/svg" xmlns:xlink="http://www.w3.org/1999/xlink">
    <!-- Generator: Sketch 50.2 (55047) - http://www.bohemiancoding.com/sketch -->
    <title>ico_speaker</title>
    <desc>Created with Sketch.</desc>
    <defs></defs>
    <g id="Page-1" stroke="none" stroke-width="1" fill="none" fill-rule="evenodd">
        <g id="Artboard" transform="translate(-100.000000, -23.000000)" fill="#FFFFFF">
            <g id="Group" transform="translate(100.000000, 23.000000)">
                <path d="M5,4 L10.6060807,1.59739399 C11.1137105,1.37983836 11.7015894,1.61498993 11.919145,2.12261972 C11.9724923,2.24709657 12,2.38111224 12,2.51653902 L12,11.483461 C12,12.0357457 11.5522847,12.483461 11,12.483461 C10.8645732,12.483461 10.7305575,12.4559532 10.6060807,12.402606 L5,10 L5,4 Z M4,4 L4,10 L2,10 C1.44771525,10 1,9.55228475 1,9 L1,5 C1,4.44771525 1.44771525,4 2,4 L4,4 Z" id="Combined-Shape"></path>
            </g>
        </g>
    </g>
</svg>